<svg xmlns="http://www.w3.org/2000/svg" xmlns:xlink="http://www.w3.org/1999/xlink" width="500" zoomAndPan="magnify" viewBox="0 0 375 374.999991" height="500" preserveAspectRatio="xMidYMid meet" version="1.0"><defs><g/></defs><rect x="-37.5" width="450" fill="#ffffff" y="-37.499999" height="449.999989" fill-opacity="1"/><rect x="-37.5" width="450" fill="#ffffff" y="-37.499999" height="449.999989" fill-opacity="1"/><g fill="#000000" fill-opacity="1"><g transform="translate(108.102025, 195.72626)"><g><path d="M 35.484375 0 L 33.609375 -23.375 L 33.375 -23.375 L 25.296875 -0.234375 L 19.9375 -0.234375 L 11.859375 -23.375 L 11.625 -23.375 L 9.75 0 L 0.765625 0 L 4.296875 -39.4375 L 13.859375 -39.4375 L 22.609375 -16.6875 L 31.359375 -39.4375 L 40.921875 -39.4375 L 44.46875 0 Z M 35.484375 0 "/></g></g></g><g fill="#000000" fill-opacity="1"><g transform="translate(152.366426, 195.72626)"><g><path d="M 4.53125 -3.03125 C 2.238281 -5.539062 1.09375 -8.609375 1.09375 -12.234375 C 1.09375 -15.867188 2.238281 -18.945312 4.53125 -21.46875 C 6.832031 -23.988281 9.753906 -25.25 13.296875 -25.25 C 16.546875 -25.25 19.222656 -24.226562 21.328125 -22.1875 L 21.328125 -24.53125 L 29.78125 -24.53125 L 29.78125 0 L 21.421875 0 L 21.421875 -2.765625 L 21.328125 -2.765625 C 19.222656 -0.441406 16.546875 0.71875 13.296875 0.71875 C 9.753906 0.71875 6.832031 -0.53125 4.53125 -3.03125 Z M 11.734375 -16.40625 C 10.640625 -15.320312 10.09375 -13.929688 10.09375 -12.234375 C 10.09375 -10.546875 10.617188 -9.164062 11.671875 -8.09375 C 12.722656 -7.03125 14.109375 -6.5 15.828125 -6.5 C 17.484375 -6.5 18.84375 -7.039062 19.90625 -8.125 C 20.976562 -9.207031 21.515625 -10.578125 21.515625 -12.234375 C 21.515625 -13.929688 20.960938 -15.320312 19.859375 -16.40625 C 18.765625 -17.488281 17.421875 -18.03125 15.828125 -18.03125 C 14.203125 -18.03125 12.835938 -17.488281 11.734375 -16.40625 Z M 11.734375 -16.40625 "/></g></g></g><g fill="#000000" fill-opacity="1"><g transform="translate(184.058858, 195.72626)"><g><path d="M 2.875 0 L 2.875 -41.125 L 11.328125 -41.125 L 11.328125 -21.953125 L 11.421875 -21.953125 C 13.617188 -24.148438 15.960938 -25.25 18.453125 -25.25 C 19.660156 -25.25 20.863281 -25.085938 22.0625 -24.765625 C 23.257812 -24.441406 24.40625 -23.945312 25.5 -23.28125 C 26.601562 -22.613281 27.5 -21.664062 28.1875 -20.4375 C 28.875 -19.207031 29.21875 -17.78125 29.21875 -16.15625 L 29.21875 0 L 20.75 0 L 20.75 -13.859375 C 20.75 -15.140625 20.34375 -16.253906 19.53125 -17.203125 C 18.71875 -18.160156 17.660156 -18.640625 16.359375 -18.640625 C 15.078125 -18.640625 13.914062 -18.144531 12.875 -17.15625 C 11.84375 -16.175781 11.328125 -15.078125 11.328125 -13.859375 L 11.328125 0 Z M 2.875 0 "/></g></g></g><g fill="#000000" fill-opacity="1"><g transform="translate(214.699655, 195.72626)"><g><path d="M 27.6875 -11.09375 L 9.890625 -11.09375 C 9.890625 -9.375 10.445312 -8.097656 11.5625 -7.265625 C 12.6875 -6.441406 13.898438 -6.03125 15.203125 -6.03125 C 16.578125 -6.03125 17.660156 -6.210938 18.453125 -6.578125 C 19.253906 -6.941406 20.164062 -7.664062 21.1875 -8.75 L 27.296875 -5.6875 C 24.742188 -1.414062 20.503906 0.71875 14.578125 0.71875 C 10.878906 0.71875 7.707031 -0.546875 5.0625 -3.078125 C 2.414062 -5.617188 1.09375 -8.671875 1.09375 -12.234375 C 1.09375 -15.804688 2.414062 -18.867188 5.0625 -21.421875 C 7.707031 -23.972656 10.878906 -25.25 14.578125 -25.25 C 18.472656 -25.25 21.640625 -24.125 24.078125 -21.875 C 26.515625 -19.625 27.734375 -16.410156 27.734375 -12.234375 C 27.734375 -11.660156 27.71875 -11.28125 27.6875 -11.09375 Z M 10.140625 -15.78125 L 19.453125 -15.78125 C 19.265625 -17.050781 18.765625 -18.03125 17.953125 -18.71875 C 17.140625 -19.40625 16.097656 -19.75 14.828125 -19.75 C 13.421875 -19.75 12.300781 -19.378906 11.46875 -18.640625 C 10.644531 -17.910156 10.203125 -16.957031 10.140625 -15.78125 Z M 10.140625 -15.78125 "/></g></g></g><g fill="#000000" fill-opacity="1"><g transform="translate(242.56792, 195.72626)"><g><path d="M 27.6875 -11.09375 L 9.890625 -11.09375 C 9.890625 -9.375 10.445312 -8.097656 11.5625 -7.265625 C 12.6875 -6.441406 13.898438 -6.03125 15.203125 -6.03125 C 16.578125 -6.03125 17.660156 -6.210938 18.453125 -6.578125 C 19.253906 -6.941406 20.164062 -7.664062 21.1875 -8.75 L 27.296875 -5.6875 C 24.742188 -1.414062 20.503906 0.71875 14.578125 0.71875 C 10.878906 0.71875 7.707031 -0.546875 5.0625 -3.078125 C 2.414062 -5.617188 1.09375 -8.671875 1.09375 -12.234375 C 1.09375 -15.804688 2.414062 -18.867188 5.0625 -21.421875 C 7.707031 -23.972656 10.878906 -25.25 14.578125 -25.25 C 18.472656 -25.25 21.640625 -24.125 24.078125 -21.875 C 26.515625 -19.625 27.734375 -16.410156 27.734375 -12.234375 C 27.734375 -11.660156 27.71875 -11.28125 27.6875 -11.09375 Z M 10.140625 -15.78125 L 19.453125 -15.78125 C 19.265625 -17.050781 18.765625 -18.03125 17.953125 -18.71875 C 17.140625 -19.40625 16.097656 -19.75 14.828125 -19.75 C 13.421875 -19.75 12.300781 -19.378906 11.46875 -18.640625 C 10.644531 -17.910156 10.203125 -16.957031 10.140625 -15.78125 Z M 10.140625 -15.78125 "/></g></g></g><g fill="#000000" fill-opacity="1"><g transform="translate(85.516152, 216.397409)"><g><path d="M 1.21875 -10.234375 L 5.859375 -10.234375 C 6.972656 -10.234375 7.957031 -10.019531 8.8125 -9.59375 C 9.664062 -9.175781 10.328125 -8.582031 10.796875 -7.8125 C 11.273438 -7.039062 11.515625 -6.144531 11.515625 -5.125 C 11.515625 -4.09375 11.273438 -3.191406 10.796875 -2.421875 C 10.328125 -1.648438 9.664062 -1.050781 8.8125 -0.625 C 7.957031 -0.207031 6.972656 0 5.859375 0 L 1.21875 0 Z M 5.75 -1.9375 C 6.769531 -1.9375 7.582031 -2.222656 8.1875 -2.796875 C 8.800781 -3.367188 9.109375 -4.144531 9.109375 -5.125 C 9.109375 -6.09375 8.800781 -6.863281 8.1875 -7.4375 C 7.582031 -8.007812 6.769531 -8.296875 5.75 -8.296875 L 3.578125 -8.296875 L 3.578125 -1.9375 Z M 5.75 -1.9375 "/></g></g></g><g fill="#000000" fill-opacity="1"><g transform="translate(99.785955, 216.397409)"><g><path d="M 1.21875 -10.234375 L 3.578125 -10.234375 L 3.578125 0 L 1.21875 0 Z M 1.21875 -10.234375 "/></g></g></g><g fill="#000000" fill-opacity="1"><g transform="translate(106.775001, 216.397409)"><g><path d="M 8.125 -5.28125 L 10.296875 -5.28125 L 10.296875 -1.125 C 9.742188 -0.707031 9.097656 -0.382812 8.359375 -0.15625 C 7.628906 0.0625 6.894531 0.171875 6.15625 0.171875 C 5.09375 0.171875 4.132812 -0.0507812 3.28125 -0.5 C 2.4375 -0.957031 1.773438 -1.585938 1.296875 -2.390625 C 0.816406 -3.191406 0.578125 -4.101562 0.578125 -5.125 C 0.578125 -6.132812 0.816406 -7.039062 1.296875 -7.84375 C 1.773438 -8.644531 2.441406 -9.269531 3.296875 -9.71875 C 4.160156 -10.175781 5.128906 -10.40625 6.203125 -10.40625 C 7.097656 -10.40625 7.910156 -10.253906 8.640625 -9.953125 C 9.367188 -9.648438 9.984375 -9.210938 10.484375 -8.640625 L 8.96875 -7.234375 C 8.238281 -8.003906 7.351562 -8.390625 6.3125 -8.390625 C 5.664062 -8.390625 5.085938 -8.253906 4.578125 -7.984375 C 4.066406 -7.710938 3.671875 -7.328125 3.390625 -6.828125 C 3.109375 -6.328125 2.96875 -5.757812 2.96875 -5.125 C 2.96875 -4.488281 3.109375 -3.921875 3.390625 -3.421875 C 3.671875 -2.921875 4.0625 -2.53125 4.5625 -2.25 C 5.070312 -1.976562 5.644531 -1.84375 6.28125 -1.84375 C 6.96875 -1.84375 7.582031 -1.988281 8.125 -2.28125 Z M 8.125 -5.28125 "/></g></g></g><g fill="#000000" fill-opacity="1"><g transform="translate(120.240711, 216.397409)"><g><path d="M 3.328125 -8.3125 L 0.0625 -8.3125 L 0.0625 -10.234375 L 8.984375 -10.234375 L 8.984375 -8.3125 L 5.703125 -8.3125 L 5.703125 0 L 3.328125 0 Z M 3.328125 -8.3125 "/></g></g></g><g fill="#000000" fill-opacity="1"><g transform="translate(131.469562, 216.397409)"><g><path d="M 1.21875 -10.234375 L 3.578125 -10.234375 L 3.578125 0 L 1.21875 0 Z M 1.21875 -10.234375 "/></g></g></g><g fill="#000000" fill-opacity="1"><g transform="translate(138.458608, 216.397409)"><g><path d="M 7.953125 -2.1875 L 3.203125 -2.1875 L 2.296875 0 L -0.125 0 L 4.4375 -10.234375 L 6.765625 -10.234375 L 11.34375 0 L 8.859375 0 Z M 7.203125 -4 L 5.59375 -7.90625 L 3.96875 -4 Z M 7.203125 -4 "/></g></g></g><g fill="#000000" fill-opacity="1"><g transform="translate(151.851218, 216.397409)"><g><path d="M 1.21875 -10.234375 L 3.578125 -10.234375 L 3.578125 -1.9375 L 8.71875 -1.9375 L 8.71875 0 L 1.21875 0 Z M 1.21875 -10.234375 "/></g></g></g><g fill="#000000" fill-opacity="1"><g transform="translate(162.875387, 216.397409)"><g/></g></g><g fill="#000000" fill-opacity="1"><g transform="translate(169.206521, 216.397409)"><g><path d="M 6.109375 0.171875 C 5.066406 0.171875 4.125 -0.0507812 3.28125 -0.5 C 2.4375 -0.957031 1.773438 -1.585938 1.296875 -2.390625 C 0.816406 -3.191406 0.578125 -4.101562 0.578125 -5.125 C 0.578125 -6.132812 0.816406 -7.039062 1.296875 -7.84375 C 1.773438 -8.644531 2.4375 -9.269531 3.28125 -9.71875 C 4.125 -10.175781 5.070312 -10.40625 6.125 -10.40625 C 7.007812 -10.40625 7.8125 -10.25 8.53125 -9.9375 C 9.25 -9.632812 9.851562 -9.1875 10.34375 -8.59375 L 8.8125 -7.203125 C 8.125 -7.992188 7.269531 -8.390625 6.25 -8.390625 C 5.613281 -8.390625 5.046875 -8.25 4.546875 -7.96875 C 4.046875 -7.695312 3.65625 -7.3125 3.375 -6.8125 C 3.101562 -6.3125 2.96875 -5.75 2.96875 -5.125 C 2.96875 -4.488281 3.101562 -3.921875 3.375 -3.421875 C 3.65625 -2.921875 4.046875 -2.53125 4.546875 -2.25 C 5.046875 -1.976562 5.613281 -1.84375 6.25 -1.84375 C 7.269531 -1.84375 8.125 -2.25 8.8125 -3.0625 L 10.34375 -1.65625 C 9.851562 -1.0625 9.242188 -0.609375 8.515625 -0.296875 C 7.796875 0.015625 6.992188 0.171875 6.109375 0.171875 Z M 6.109375 0.171875 "/></g></g></g><g fill="#000000" fill-opacity="1"><g transform="translate(182.116669, 216.397409)"><g><path d="M 6.171875 0.171875 C 5.109375 0.171875 4.148438 -0.0546875 3.296875 -0.515625 C 2.441406 -0.972656 1.773438 -1.601562 1.296875 -2.40625 C 0.816406 -3.207031 0.578125 -4.113281 0.578125 -5.125 C 0.578125 -6.125 0.816406 -7.023438 1.296875 -7.828125 C 1.773438 -8.628906 2.441406 -9.257812 3.296875 -9.71875 C 4.148438 -10.175781 5.109375 -10.40625 6.171875 -10.40625 C 7.234375 -10.40625 8.1875 -10.175781 9.03125 -9.71875 C 9.882812 -9.257812 10.550781 -8.628906 11.03125 -7.828125 C 11.519531 -7.023438 11.765625 -6.125 11.765625 -5.125 C 11.765625 -4.113281 11.519531 -3.207031 11.03125 -2.40625 C 10.550781 -1.601562 9.882812 -0.972656 9.03125 -0.515625 C 8.1875 -0.0546875 7.234375 0.171875 6.171875 0.171875 Z M 6.171875 -1.84375 C 6.773438 -1.84375 7.320312 -1.976562 7.8125 -2.25 C 8.300781 -2.53125 8.679688 -2.921875 8.953125 -3.421875 C 9.234375 -3.921875 9.375 -4.488281 9.375 -5.125 C 9.375 -5.75 9.234375 -6.3125 8.953125 -6.8125 C 8.679688 -7.3125 8.300781 -7.695312 7.8125 -7.96875 C 7.320312 -8.25 6.773438 -8.390625 6.171875 -8.390625 C 5.566406 -8.390625 5.019531 -8.25 4.53125 -7.96875 C 4.039062 -7.695312 3.65625 -7.3125 3.375 -6.8125 C 3.101562 -6.3125 2.96875 -5.75 2.96875 -5.125 C 2.96875 -4.488281 3.101562 -3.921875 3.375 -3.421875 C 3.65625 -2.921875 4.039062 -2.53125 4.53125 -2.25 C 5.019531 -1.976562 5.566406 -1.84375 6.171875 -1.84375 Z M 6.171875 -1.84375 "/></g></g></g><g fill="#000000" fill-opacity="1"><g transform="translate(196.64963, 216.397409)"><g><path d="M 1.921875 0.109375 C 1.515625 0.109375 1.175781 -0.0234375 0.90625 -0.296875 C 0.632812 -0.566406 0.5 -0.90625 0.5 -1.3125 C 0.5 -1.726562 0.632812 -2.066406 0.90625 -2.328125 C 1.175781 -2.585938 1.515625 -2.71875 1.921875 -2.71875 C 2.316406 -2.71875 2.648438 -2.585938 2.921875 -2.328125 C 3.191406 -2.066406 3.328125 -1.726562 3.328125 -1.3125 C 3.328125 -0.90625 3.191406 -0.566406 2.921875 -0.296875 C 2.648438 -0.0234375 2.316406 0.109375 1.921875 0.109375 Z M 1.921875 0.109375 "/></g></g></g><path stroke-linecap="butt" transform="matrix(0, 0.75, -0.75, 0, 219.180165, 204.58569)" fill="none" stroke-linejoin="miter" d="M 0.000330313 5.500637 L 17.390956 5.500637 " stroke="#000000" stroke-width="11" stroke-opacity="1" stroke-miterlimit="4"/></svg>